<?xml version="1.0" encoding="utf-8"?>
<!-- Generator: Adobe Illustrator 26.3.1, SVG Export Plug-In . SVG Version: 6.00 Build 0)  -->
<svg version="1.1" id="Layer_2" xmlns="http://www.w3.org/2000/svg" xmlns:xlink="http://www.w3.org/1999/xlink" x="0px" y="0px" width="90" height="530"
	viewBox="0 0 80 295" style="enable-background:new 0 0 81.64 395.5;" xml:space="preserve">
<g>
<g>
	<polygon class="st0" points="65.37,29.75 65.37,20.74 71.66,20.74 71.66,8.44 9.98,8.44 9.98,20.74 16.28,20.74 16.28,29.75 
		23.81,29.75 23.81,20.74 27.4,20.74 27.4,29.75 33.96,29.75 33.96,20.74 37.55,20.74 37.55,29.75 44.1,29.75 44.1,20.74 
		47.69,20.74 47.69,29.75 54.24,29.75 54.24,20.74 57.84,20.74 57.84,29.75 		"/>
	<rect x="3.12" class="st0" width="75.42" height="6.36"/>
	<rect x="4.21" y="286.37" class="st0" width="73.21" height="4.05"/>
	<polygon class="st0" points="4.22,282.38 77.43,282.38 77.43,280.2 81.64,280.2 81.64,271.47 0,271.47 0,280.2 4.22,280.2 		"/>
	<rect x="21.23" y="41.81" class="st0" width="39.19" height="8.14"/>
	<polygon class="st0" points="16.28,262 9.11,262 9.11,267.25 72.53,267.25 72.53,262 65.37,262 65.37,54.23 57.84,54.23 
		57.84,262 54.24,262 54.24,54.23 47.69,54.23 47.69,262 44.1,262 44.1,54.23 37.55,54.23 37.55,262 33.96,262 33.96,54.23 
		27.4,54.23 27.4,262 23.81,262 23.81,54.23 16.28,54.23 		"/>
	<path class="st0" d="M3.4,51.93c0.84,0.8,1.81,1.48,2.86,1.95c1.15,0.51,2.28,0.75,3.45,0.77c2.32,0.05,4.56-0.86,6.12-2.35
		c0.2-0.18,0.38-0.37,0.55-0.58c0.18-0.19,0.35-0.4,0.49-0.62l0.23-0.32l0.05-0.08c0.07-0.11,0.04-0.07,0.07-0.12l0.08-0.15
		l0.17-0.29l0.18-0.37c0.46-0.98,0.68-1.95,0.72-2.94c0.09-1.96-0.72-3.85-2.01-4.98c-1.25-1.18-2.97-1.6-4.32-1.32
		c-1.4,0.24-2.44,1.17-2.83,2.09c-0.42,0.92-0.4,1.69-0.38,2.19h0.87V44.8c0-0.42,0.05-1.06,0.41-1.7
		c0.34-0.64,1.09-1.23,2.11-1.33c1.02-0.12,2.22,0.24,3.07,1.2c0.88,0.91,1.34,2.31,1.17,3.75c-0.08,0.71-0.33,1.46-0.68,2.07
		l-0.13,0.23l-0.19,0.28l-0.1,0.14c0,0-0.06,0.09-0.02,0.03l-0.05,0.06l-0.19,0.22c-0.12,0.15-0.26,0.29-0.4,0.42
		c-0.14,0.14-0.28,0.27-0.44,0.39c-1.21,0.99-2.85,1.49-4.43,1.32c-0.78-0.07-1.59-0.33-2.22-0.67c-0.72-0.39-1.36-0.93-1.91-1.53
		c-1.07-1.23-1.74-2.78-1.86-4.35c-0.06-0.78-0.02-1.56,0.16-2.29c0.09-0.36,0.19-0.72,0.34-1.06c0.07-0.17,0.14-0.35,0.22-0.49
		c0.08-0.14,0.15-0.27,0.22-0.41c0.03-0.06,0.08-0.15,0.15-0.25l0.2-0.29l0.19-0.29l0.04-0.05c0.01-0.02-0.03,0.04-0.05,0.07
		l0.14-0.18c0.25-0.31,0.49-0.63,0.76-0.89c0.5-0.58,1.06-1,1.59-1.39c1.09-0.71,2.26-1.07,3.5-1.25c1.23-0.18,2.48-0.19,3.6-0.16
		c1.12,0.03,2.14,0.1,2.97,0.17c0.18,0.02,0.36,0.03,0.53,0.05l0.01,0c1.37,0.12,2.14,0.2,2.14,0.2l0.03,0
		c0.07,0,0.14,0.01,0.21,0.01c1.21,0.08,2.79,0.34,4.86,0.43c2.07,0.09,4.49,0.28,7.08,0.34c1.3,0.03,2.64,0.09,4,0.09
		c1.36,0.01,2.74,0.02,4.12,0.03c1.38-0.01,2.76-0.02,4.12-0.04c1.36-0.01,2.7-0.06,4-0.09c1.3-0.02,2.55-0.11,3.74-0.16
		c1.19-0.06,2.31-0.12,3.35-0.17c2.07-0.1,3.8-0.3,5.01-0.39c0.56-0.05,1-0.11,1.32-0.17c0.37-0.03,0.81-0.07,1.32-0.12
		c0.83-0.07,1.84-0.14,2.97-0.17c1.12-0.02,2.37-0.02,3.6,0.16c1.24,0.18,2.4,0.55,3.5,1.25c0.53,0.39,1.08,0.81,1.59,1.39
		c0.27,0.26,0.51,0.58,0.76,0.89l0.09,0.12l0.05,0.06c-0.01-0.01-0.02-0.03-0.03-0.04l0.02,0.03l0.2,0.29l0.19,0.29
		c0.07,0.1,0.13,0.19,0.15,0.25c0.07,0.14,0.14,0.27,0.22,0.41c0.08,0.15,0.14,0.33,0.22,0.49c0.14,0.34,0.25,0.7,0.34,1.06
		c0.19,0.73,0.23,1.51,0.16,2.29c-0.11,1.57-0.79,3.12-1.86,4.35c-0.55,0.61-1.19,1.14-1.91,1.53c-0.63,0.35-1.44,0.6-2.22,0.67
		c-1.58,0.17-3.22-0.34-4.43-1.32c-0.16-0.11-0.31-0.25-0.44-0.39c-0.15-0.13-0.28-0.27-0.4-0.42l-0.19-0.22l-0.05-0.06
		c0.04,0.06-0.02-0.02-0.02-0.03l-0.09-0.14l-0.19-0.28l-0.13-0.23c-0.35-0.61-0.6-1.37-0.68-2.07c-0.17-1.44,0.29-2.84,1.17-3.75
		c0.86-0.96,2.05-1.32,3.07-1.2c1.03,0.11,1.78,0.69,2.12,1.33c0.34,0.61,0.4,1.21,0.4,1.63h0.88c0.02-0.49,0.02-1.23-0.38-2.09
		c-0.4-0.92-1.44-1.86-2.83-2.09c-1.36-0.28-3.08,0.14-4.32,1.32c-1.29,1.14-2.09,3.02-2.01,4.98c0.04,0.99,0.26,1.96,0.72,2.94
		l0.18,0.37l0.17,0.29l0.08,0.15c0.03,0.04,0,0.01,0.07,0.12l0.06,0.08l0.23,0.32c0.15,0.22,0.31,0.42,0.49,0.62
		c0.17,0.2,0.35,0.4,0.56,0.58c1.56,1.48,3.79,2.4,6.11,2.35c1.17-0.02,2.3-0.26,3.45-0.77c1.05-0.47,2.02-1.15,2.86-1.95
		c1.68-1.62,2.84-3.8,3.21-6.12c0.19-1.15,0.22-2.34,0.04-3.48c-0.09-0.57-0.21-1.14-0.39-1.69c-0.09-0.27-0.17-0.54-0.29-0.82
		l-0.39-0.85c-0.07-0.15-0.13-0.27-0.19-0.36l-0.17-0.3l-0.17-0.3l-0.02-0.04l-0.08-0.13l-0.16-0.24c-0.29-0.42-0.57-0.85-0.9-1.25
		c-0.62-0.82-1.39-1.56-2.19-2.23c-1.66-1.31-3.6-2.06-5.27-2.44c-1.69-0.38-3.18-0.49-4.47-0.57c-1.29-0.06-2.38-0.07-3.28-0.07
		c-1.76,0.02-2.77,0.04-2.77,0.04c-0.07,0-0.15,0-0.22,0.01c-0.05,0-0.09,0.02-0.14,0.03c-1.14,0.05-2.59,0.13-4.29,0.17
		c-2.07,0.04-4.49,0.13-7.09,0.16c-2.59,0.02-5.36,0.04-8.12,0.07c-2.77-0.02-5.53-0.04-8.12-0.06c-2.59-0.01-5.01-0.11-7.08-0.16
		c-1.81-0.04-3.33-0.13-4.49-0.18c-0.1-0.01-0.19-0.03-0.29-0.03c0,0-0.26,0-0.75-0.01c-0.94-0.03-1.59-0.02-1.59-0.02
		c-0.14,0-0.28,0-0.42-0.01c-0.9,0-1.99,0.01-3.29,0.07c-1.29,0.08-2.78,0.19-4.46,0.57c-1.68,0.38-3.61,1.13-5.27,2.44
		c-0.8,0.67-1.57,1.41-2.19,2.23c-0.34,0.4-0.61,0.82-0.9,1.25L1.9,37.77l-0.05,0.08l-0.08,0.13l-0.02,0.04l-0.17,0.3l-0.17,0.3
		c-0.06,0.09-0.12,0.2-0.19,0.36l-0.39,0.85c-0.11,0.28-0.19,0.55-0.28,0.82c-0.18,0.55-0.3,1.12-0.39,1.69
		c-0.19,1.15-0.16,2.33,0.04,3.48C0.56,48.13,1.73,50.31,3.4,51.93z"/>
</g>
</g>
</svg>